# xmcd
#
# Track frame offsets: 
#        150
#        12465
#        26217
#        40039
#        50655
#        61475
#        78490
#        89070
#        101325
#        116260
#        129797
#        144272
#        157115
#        170172
#        184892
#        199960
#        213060
#        223082
#        234317
#        249312
#        264322
#        274652
#
# Disc length: 3863 seconds
#
# Revision: 2
# Processed by: cddbd v1.5.2PL0 Copyright (c) Steve Scherf et al.
# Submitted via: ExactAudioCopy v0.99pb5
#
DISCID=390f1516
DTITLE=George Jones - The Essential George Jones - The Spirit of Count
DTITLE=ry - Disc 2 of 2
DYEAR=1994
DGENRE=Country
TTITLE0=The Door (1975  KE 33352)
TTITLE1=These Days (I Barely Get By) (1975  KE 33352)
TTITLE2=Golden Ring (1976  KE 34291)
TTITLE3=Her Name Is (1976  KE 34290)
TTITLE4=George Jones and Tammy Wynette - Near You (1976  KE 34291)
TTITLE5=George Jones and James Taylor - Bartender's Blues (1978  KE 3541
TTITLE5=4)
TTITLE6=George Jones and Johnny Paycheck - Maybelline (1980  JE 35783)
TTITLE7=George Jones and Tammy Wynette - Two Story House (1980  JE 36764
TTITLE7=)
TTITLE8=He Stopped Loving Her Today (1980  JE 35586)
TTITLE9=I'm Not Ready Yet (1980  JE 35586)
TTITLE10=If Drinkin' Don't Kill Me (Her Memory Will) (1980  JE 35586)
TTITLE11=Still Doin' Time (1981  FE 37106)
TTITLE12=Same Ole Me (1981  FE 37106)
TTITLE13=George Jones and Merle Haggard - Yesterday's Wine (1982  FE 395
TTITLE13=46)
TTITLE14=I Always Get Lucky With You (1983  FE 38406)
TTITLE15=Tennessee Whiskey (1983  FE 38406)
TTITLE16=George Jones and Ray Charles featuring Chet Atkins - We Didn't 
TTITLE16=See A Thing (1984  FE 39546)
TTITLE17=She's My Rock (1984  FE 39272)
TTITLE18=Who's Gonna Fill Their Shoes (1984  FE 39598)
TTITLE19=Wine Colored Roses (1986  FE 40413)
TTITLE20=I'm A One Woman Man (1988  FE 44078)
TTITLE21=Ya Ba Da Ba Da (So Are You) (1988  FE 44078)
EXTD=
EXTT0=
EXTT1=
EXTT2=With Tammy Wynette
EXTT3=
EXTT4=With Tammy Wynette
EXTT5=With James Taylor
EXTT6=With Johnny Paycheck
EXTT7=With Tammy Wynette
EXTT8=
EXTT9=
EXTT10=
EXTT11=
EXTT12=
EXTT13=With Merle Haggard
EXTT14=
EXTT15=
EXTT16=With Ray Charles and Chet Atkins
EXTT17=
EXTT18=
EXTT19=
EXTT20=
EXTT21=
PLAYORDER=
